<svg xmlns="http://www.w3.org/2000/svg" width="1800" height="760" viewBox="0 0 1800 760" role="img" aria-label="Information Graph Theory honeycomb graph hero"><defs><radialGradient id="bg" cx="50%" cy="45%" r="70%"><stop offset="0%" stop-color="#072411"/><stop offset="55%" stop-color="#020806"/><stop offset="100%" stop-color="#000"/></radialGradient><linearGradient id="edge" x1="0" x2="1"><stop offset="0%" stop-color="#70ff62"/><stop offset="100%" stop-color="#00e5ff"/></linearGradient><filter id="glow"><feGaussianBlur stdDeviation="3" result="b"/><feMerge><feMergeNode in="b"/><feMergeNode in="SourceGraphic"/></feMerge></filter><style>.title{font:42px Arial; font-weight:700; fill:#eaffff; letter-spacing:10px}.subtitle{font:19px Arial; fill:#00e5ff; letter-spacing:5px}.label{font:18px Arial; fill:#bffcff}.math{font:32px Georgia; fill:#70ff62}.small{font:15px Arial; fill:#bffcff}.panel{fill:rgba(0,0,0,.18); stroke:#0fa; stroke-width:1.2; opacity:.8}.panelTitle{font:17px Arial; fill:#bffcff; letter-spacing:1px}</style></defs><rect width="100%" height="100%" fill="url(#bg)"/><circle cx="900" cy="360" r="210" fill="none" stroke="#00e5ff" stroke-width="1" stroke-dasharray="8 12" opacity=".25"/><circle cx="900" cy="360" r="285" fill="none" stroke="#00e5ff" stroke-width="1" stroke-dasharray="8 12" opacity=".22"/><circle cx="900" cy="360" r="360" fill="none" stroke="#00e5ff" stroke-width="1" stroke-dasharray="8 12" opacity=".18"/><circle cx="900" cy="360" r="435" fill="none" stroke="#00e5ff" stroke-width="1" stroke-dasharray="8 12" opacity=".12"/><rect class="panel" x="35" y="45" width="340" height="140" rx="16"/><text class="panelTitle" x="205" y="73" text-anchor="middle">GRAPH EMBEDDING</text><rect class="panel" x="35" y="205" width="340" height="140" rx="16"/><text class="panelTitle" x="205" y="233" text-anchor="middle">ADJACENCY STRUCTURE</text><rect class="panel" x="35" y="365" width="340" height="140" rx="16"/><text class="panelTitle" x="205" y="393" text-anchor="middle">DEGREE DISTRIBUTION</text><rect class="panel" x="1425" y="45" width="340" height="140" rx="16"/><text class="panelTitle" x="1595" y="73" text-anchor="middle">LONG-RANGE CONNECTIONS</text><rect class="panel" x="1425" y="205" width="340" height="140" rx="16"/><text class="panelTitle" x="1595" y="233" text-anchor="middle">SPECTRAL DENSITY</text><rect class="panel" x="1425" y="365" width="340" height="140" rx="16"/><text class="panelTitle" x="1595" y="393" text-anchor="middle">EIGENVALUE SPECTRUM</text><text class="math" x="420" y="85">G(N,K,p)</text><text class="label" x="420" y="130">K = 6</text><text class="label" x="420" y="165">p ≈ 4.8027×10⁻⁴²</text><text class="label" x="420" y="200">N ≈ 4.197668×10¹²¹</text><g filter="url(#glow)"><polygon points="846.3,329 846.3,391 900,422 953.7,391 953.7,329 900,298" fill="#0a2212" opacity=".24" stroke="url(#edge)" stroke-width="4"/><circle cx="900" cy="360" r="20" fill="#70ff62"/><text class="label" x="900" y="412" text-anchor="middle">v₀</text><polygon points="753.3,329 753.3,391 807,422 860.7,391 860.7,329 807,298" fill="none" stroke="url(#edge)" stroke-width="2.5"/><polygon points="939.3,329 939.3,391 993,422 1046.7,391 1046.7,329 993,298" fill="none" stroke="url(#edge)" stroke-width="2.5"/><polygon points="799.8,248.5 799.8,310.5 853.5,341.5 907.2,310.5 907.2,248.5 853.5,217.5" fill="none" stroke="url(#edge)" stroke-width="2.5"/><polygon points="892.8,248.5 892.8,310.5 946.5,341.5 1000.2,310.5 1000.2,248.5 946.5,217.5" fill="none" stroke="url(#edge)" stroke-width="2.5"/><polygon points="799.8,409.5 799.8,471.5 853.5,502.5 907.2,471.5 907.2,409.5 853.5,378.5" fill="none" stroke="url(#edge)" stroke-width="2.5"/><polygon points="892.8,409.5 892.8,471.5 946.5,502.5 1000.2,471.5 1000.2,409.5 946.5,378.5" fill="none" stroke="url(#edge)" stroke-width="2.5"/><path d="M620,360 Q900,135 1180,360" fill="none" stroke="#00e5ff" stroke-width="1.2" stroke-dasharray="5 8" opacity=".45"/><path d="M710,520 Q900,250 1090,520" fill="none" stroke="#70ff62" stroke-width="1.2" stroke-dasharray="5 8" opacity=".45"/></g><rect x="1265" y="205" width="150" height="42" rx="8" fill="rgba(0,0,0,.25)" stroke="#0fa" opacity=".75"/><text class="math" x="1283" y="234" font-size="24">f₁</text><text class="small" x="1327" y="232">degree</text><rect x="1265" y="263" width="150" height="42" rx="8" fill="rgba(0,0,0,.25)" stroke="#0fa" opacity=".75"/><text class="math" x="1283" y="292" font-size="24">f₂</text><text class="small" x="1327" y="290">clustering</text><rect x="1265" y="321" width="150" height="42" rx="8" fill="rgba(0,0,0,.25)" stroke="#0fa" opacity=".75"/><text class="math" x="1283" y="350" font-size="24">f₃</text><text class="small" x="1327" y="348">distance</text><rect x="1265" y="379" width="150" height="42" rx="8" fill="rgba(0,0,0,.25)" stroke="#0fa" opacity=".75"/><text class="math" x="1283" y="408" font-size="24">f₄</text><text class="small" x="1327" y="406">spectrum</text><rect x="1265" y="437" width="150" height="42" rx="8" fill="rgba(0,0,0,.25)" stroke="#0fa" opacity=".75"/><text class="math" x="1283" y="466" font-size="24">f₅</text><text class="small" x="1327" y="464">centrality</text><rect x="1265" y="495" width="150" height="42" rx="8" fill="rgba(0,0,0,.25)" stroke="#0fa" opacity=".75"/><text class="math" x="1283" y="524" font-size="24">f₆</text><text class="small" x="1327" y="522">flow</text><text class="title" x="900" y="705" text-anchor="middle">INFORMATION GRAPH THEORY</text><text class="subtitle" x="900" y="735" text-anchor="middle">G(N,K,p) • HEXAGONAL GRAPH STRUCTURE</text></svg>